<svg width="0" height="0" class="hidden">
  <!-- icon twitter -->
  <symbol fill="none" xmlns="http://www.w3.org/2000/svg" viewBox="0 0 24 21" id="tw">
    <path d="M23 1.9998C22.0424 2.67528 20.9821 3.19191 19.86 3.52981C19.2577 2.83732 18.4573 2.3465 17.567 2.12373C16.6767 1.90097 15.7395 1.957 14.8821 2.28426C14.0247 2.61152 13.2884 3.19421 12.773 3.95352C12.2575 4.71284 11.9877 5.61214 12 6.5298V7.52979C10.2426 7.57536 8.50127 7.18562 6.93101 6.39525C5.36074 5.60488 4.01032 4.43844 3 2.9998C3 2.9998 -1 11.9998 8 15.9998C5.94053 17.3978 3.48716 18.0987 1 17.9998C10 22.9998 21 17.9998 21 6.49979C21 6.21979 20.97 5.93981 20.92 5.66981C21.9406 4.6633 22.6608 3.39252 23 1.9998Z"  stroke-width="2" stroke-linecap="round" stroke-linejoin="round"></path>
  </symbol>

  <!-- icon facebook -->
  <symbol fill="none" xmlns="http://www.w3.org/2000/svg" viewBox="0 0 24 24" id="fb">
    <path d="M17 2H14C12.6739 2 11.4021 2.52678 10.4645 3.46447C9.52678 4.40215 9 5.67392 9 7V10H6V14H9V22H13V14H16L17 10H13V7C13 6.73478 13.1054 6.48043 13.2929 6.29289C13.4804 6.10536 13.7348 6 14 6H17V2Z"  stroke-width="2" stroke-linecap="round" stroke-linejoin="round"></path>
  </symbol>

  <!-- icon instagram -->
  <symbol fill="none" xmlns="http://www.w3.org/2000/svg" viewBox="0 0 24 24" id="inst">
    <path d="M17 2H7C4.23858 2 2 4.23858 2 7V17C2 19.7614 4.23858 22 7 22H17C19.7614 22 22 19.7614 22 17V7C22 4.23858 19.7614 2 17 2Z"  stroke-width="2" stroke-linecap="round" stroke-linejoin="round"></path>
    <path d="M16 11.3698C16.1234 12.202 15.9812 13.052 15.5937 13.7988C15.2062 14.5456 14.5931 15.1512 13.8416 15.5295C13.0901 15.9077 12.2384 16.0394 11.4077 15.9057C10.5771 15.7721 9.80971 15.3799 9.21479 14.785C8.61987 14.19 8.22768 13.4227 8.09402 12.592C7.96035 11.7613 8.09202 10.9097 8.47028 10.1582C8.84854 9.40667 9.45414 8.79356 10.2009 8.40606C10.9477 8.01856 11.7977 7.8764 12.63 7.99982C13.4789 8.1257 14.2648 8.52128 14.8716 9.12812C15.4785 9.73497 15.8741 10.5209 16 11.3698Z"  stroke-width="2" stroke-linecap="round" stroke-linejoin="round"></path>
    <path d="M17.5 6.5H17.51"  stroke-width="2" stroke-linecap="round" stroke-linejoin="round"></path>
  </symbol>
</svg>